<svg height="64" preserveAspectRatio="none" viewBox="0 0 64 64" width="64" xmlns="http://www.w3.org/2000/svg"><path d="m56.0576172 21.0253906c0 10.2089844-4.7841797 16.4482422-18.2900391 16.4482422-12.6552734 0-18.7670898-6.3520508-18.7670898-16.5615234 0-10.2089844 7.9926758-18.4853516 18.7446289-18.4853516 10.75 0 18.3125 8.3896485 18.3125 18.5986328z" fill="#ff506e"/><path d="m37.7675781 38.4423828c-12.7265625 0-19.7353516-6.2260742-19.7353516-17.5302734 0-10.9086914 8.6586914-19.4536133 19.7128906-19.4536133 10.9921875 0 19.28125 8.4121094 19.28125 19.5668945.0000001 11.7197266-6.2998046 17.4169922-19.258789 17.4169922zm-.0224609-35.0473633c-9.9682617 0-17.7763672 7.6943359-17.7763672 17.5170898 0 10.2011719 6.1547852 15.5927734 17.7988281 15.5927734 11.9794922 0 17.3212891-4.7739258 17.3212891-15.4794922 0-10.0507811-7.4560547-17.630371-17.34375-17.630371z" fill="#9d0404"/><path d="m43.4384766 46.8994141c-.7949219 1.90625-.9521484 4.6826172.9521484 5.953125 1.9042969 1.1904297 3.8095703.4765625 5.7939453.5556641 1.984375.0800781 2.6191406 1.7470703 2.3007813 3.5712891-.3164063 2.1435547-2.7763672 3.3339844-4.7617188 3.8896484-3.4921875.8730469-8.3330078.2382813-10.0791016-3.1748047-1.3496094-2.6191406-.8740234-6.0322266-.8740234-8.8095703 0-1.8261719-.2382813-3.8095703.0800781-5.5566406" fill="#ff506e"/><path d="m31.1362305 41.2646484c-4.9208984.5566406-3.4130859 7.3027344-4.4448242 10.4765625-1.190918 3.8896484-7.1430664 1.2705078-10.0800781 2.6992188-2.3808594 1.1103516-3.2539063 3.8886719-.793457 5.5556641 1.984375 1.4277344 4.4448242 1.5869141 6.8256836 1.5869141 3.5717773 0 8.8095703 0 11.4296875-2.7773438 1.5869141-1.5878906 1.6660156-3.4130859 2.0634766-5.4765625" fill="#ff506e"/><path d="m14.2304688 56.9794922c-2.3808594 0-4.206543-.8720703-6.190918-2.0625-3.4921875-2.0644531-6.1113281-5.6357422-4.5234375-9.921875.7138672-1.9042969 2.4599609-3.5712891 4.6030273-3.7304688 3.0161133-.2382813 3.3330078 2.3818359 4.2861328 4.5244141.8725586 2.0634766 2.3808594 3.5712891 4.6826172 3.5712891 2.3808594 0 5-.6347656 6.1113281-2.9365234.8540039-1.7978516 2.0424805-7.0634766 3.5581055-11.2373047 3.6640625.328125 10.4897461.328125 24.5375977-.4296875 1.1904297 1.984375 1.0322266 4.6035156 2.4609375 6.4287109 1.3496094 1.6669922 3.0957031.9521484 4.9208984 1.2695313 2.3017578.3974609 2.9365234 3.0166016 1.7460938 4.8417969-.8730469 1.3496094-2.0634766 2.0634766-3.5712891 2.0634766h-1.5078125c2.1425781.0791016 3.3330078.7939453 3.8095703 3.0166016.5546875 2.6191406-1.1113281 4.2060547-3.6513672 4.3642578-1.1103516.0800781-2.6191406.3974609-3.6503906-.0791016" fill="#ff506e"/><g fill="#e43956"><path d="m9.777832 55.5175781c3.9316406 2.046875 4.887207-1.4326172 8.8129883-1.5449219 3.1777344-.0898438 6.5698242-.4902344 8.2246094-3.2548828.6420898-1.0732422-1.0356445-2.0390625-1.6772461-.9677734-1.7324219 2.8935547-3.8994141 2.609375-6.8994141 2.9316406-2.847168.3037109-4.4311523 2.7519531-7.4926758 1.1582031-1.1054687-.5751953-2.0781249 1.0996094-.9682617 1.6777344z"/><path d="m17.3081055 60.7714844c3.9580078 1.1171875 9.0791016 1.875 12.9047852-.1259766 4.59375-2.4042969 5.015625-6.8652344 6.7783203-11.2675781.4638672-1.1601563-1.4101563-1.6552734-1.8681641-.5107422-1.3994141 3.4970703-1.6855469 6.1464844-4.9936523 8.4951172-3.3100586 2.3486328-8.7290039 2.5517578-12.3100586 1.5410156-1.2050782-.3398437-1.7119141 1.5302735-.5112305 1.8681641z"/><path d="m50.1435547 55.8037109c.7080078 1.1396484-2.0732422 2.4755859-2.8330078 2.8662109-1.8378906.9433594-4.1113281 1.109375-6.0078125.2490234-1.1269531-.5107422-2.1064453 1.1621094-.9677734 1.6777344 2.765625 1.2539063 5.6748047.9150391 8.3251953-.4462891 1.8466797-.9472656 4.5996094-3.0009766 3.1533203-5.328125-.6572266-1.0576171-2.3310547-.0820311-1.6699219.9814454z"/><path d="m56.9941406 52.5292969c-.1845703 2.0712891-2.2392578 2.4814453-3.9648438 2.7216797-1.234375.1738281-.71875 2.0419922.5009766 1.8710938 2.7431641-.3837891 5.1318359-1.5478516 5.4003906-4.5800781.1113282-1.2460939-1.8271484-1.2470704-1.9365234-.0126954z"/><path d="m58.8691406 44.4316406c-.6386719 1.2617188-1.6884766 3.2871094-3.28125 3.484375-.5224609.0644531-.9707031.3837891-.9746094.9619141-.0039063.4746094.4365234 1.0400391.9619141.9746094 2.4384766-.3017578 3.9326172-2.4052734 4.9716797-4.4521484.5625-1.1103516-1.1113281-2.0839844-1.6777344-.9687501z"/><path d="m49.6943359 34.7949219c-3.4267578 1.8369141-6.2822266 2.4072266-10.2060547 2.5488281-3.3007813.1191406-8.9018555.3076172-11.7573242-1.6005859-1.0405273-.6943359-2.0024414.9873047-.96875 1.6777344 3.0585938 2.0429688 9.1850586 1.8964844 12.7124023 1.859375 4.3388672-.0458984 7.4550781-.8066406 11.2001953-2.8154297 1.100586-.5898438.1191407-2.2597657-.9804687-1.6699219z"/><path d="m29.3769531 33.59375c2.0239258 2.359375 5.1533203 3.2880859 8.1748047 3.3398438 2.5029297.0419922 2.5205078-3.8320313.0273438-3.875-2.0917969-.0351563-4.078125-.5874023-5.4775391-2.2182617-1.6259766-1.8950196-4.3422852.868164-2.7246094 2.7534179z"/><path d="m27.230957 35.5605469c4.7607422 2.2871094 10.2104492 2.1533203 15.3588867 1.4628906 6.4667969-.8662109 10.2314454-3.9736328 13.1601563-9.6323242 1.1455078-2.2124023-2.203125-4.1591797-3.3535156-1.9365234-2.1660156 4.1831055-4.4550781 6.4072266-9.1826172 7.6098633-4.109375 1.0458984-10.2416992.9697266-14.0463867-.8579102-2.2387696-1.0747071-4.1918946 2.2709961-1.9365235 3.3540039z"/></g><path d="m59.8662109 41.828125c-1.8671875-1.1279297-4.1689453.5693359-5.7421875-1.8515625-.9365234-1.4414063-.8339844-3.4101563-1.6044922-4.9394531-.1425781-.2832031-.2949219-.53125-.453125-.7568359 3.3154297-2.8886719 4.9589844-7.2861328 4.9589844-13.2548828 0-11.1547852-8.2890625-19.5668945-19.2802734-19.5668945-11.0537109 0-19.7128906 8.5449219-19.7128906 19.4536133 0 6.5898438 2.3974609 11.4389648 6.9052734 14.3505859-.0229492.0791016-.0556641.1523438-.0595703.2451172-.1420898 3.671875-.2880859 6.4003906-1.7685547 9.75-1.5385742 3.4824219-7.5688477 3.6210938-9.3789063 1.0214844-.7241211-1.0390625-1.0932617-2.5566406-1.6274414-3.7353516-1.2011719-2.6523438-4.9389648-2.8867188-7.0131836-1.1269531-7.7675781 6.5917969.8417969 15.3896484 8.3989258 16.4521484.3999023 4.5742188 7.5703125 4.7167969 11.2353516 4.6660156 5.5898438-.0761719 9.637207-1.5283203 11.5102539-6.0449219.1494141.5634766.3378906 1.1269531.5751953 1.6943359 1.4179688 3.3925781 6.2617188 4.3457031 9.4726563 3.9111328 3.1201172-.4228516 5.9355469-1.3076172 6.578125-4.0449219 2.3388672.4716797 4.5644531.1269531 6.2226563-1.8066406 1.5429688-1.7988281 1.3388672-4.4150391.0556641-6.2675781-.0742188-.1074219-.1572266-.1894531-.2373047-.2841797 3.0185546-1.5878906 4.5976561-5.6728515.9648436-7.8642578zm-39.8974609-20.9160156c0-9.8227539 7.8085938-17.5170898 17.7763672-17.5170898 9.8876953 0 17.34375 7.5795898 17.34375 17.6303711 0 5.8344727-1.8007813 15.4804688-17.3212891 15.4804688-11.6440429-.0000001-17.7988281-5.3925782-17.7988281-15.5937501zm36.8896484 27.4794922c-.0498047.0048828-.0830078.0283203-.1289063.0390625-2.2138672-.5136719-4.7783203.0908203-5.734375-3.3955078-.7460938-2.7216797-1.8974609-4.2246094-4.8515625-4.3408203-1.2509766-.0507813-1.2578125 1.8867188-.0126953 1.9365234 3.7539063.1484375 2.6357422 5.6679688 6.0615234 7.0507813 1.6689453.6748047 4.5371094.2089844 5.6308594 1.7871094.8623047 1.2451172.3789063 2.8349609-.5068359 3.8681641-1.0888672 1.2675781-2.8974609 1.1123047-4.3505859.7617188-.0009766-.0097656 0-.0185547-.0009766-.0283203-.3222656-3.2275391-3.8984375-3.6083984-5.1220703-3.5175781-4.5800781.3408203-4.3535156-2.8994141-3.4707031-5.3974609.4169922-1.1816406-1.4550781-1.6806641-1.8681641-.5107422-.7480469 2.1162109-.8662109 4.2392578.4316406 6.15625.4628906.6855469 1.5566406 1.3701172 2.3427734 1.4931641 1.1474609.1796875 1.6855469-.1425781 2.8457031-.1601563 1.7744141-.0283203 3.5742188.875 3.6025391 2.2880859.0283203 1.4238281-.9638672 1.8720703-1.8857422 2.5224609-3.2919922 2.3222656-9.1982422 1.7646484-11.3613281-1.7412109-1.2353516-2.0029297-.8291016-4.9921875-.7587891-7.2431641.0712891-2.2197266-.1708984-4.4121094.0976563-6.625.1503906-1.2402344-1.7880859-1.2373047-1.9365234-.0136719-.3105469 2.5634766-.0507813 5.1572266-.1328125 7.7363281-.015625.4658203-.0175781.921875-.0126953 1.3720703-.2558594.0849609-.4697266.28125-.5341797.6435547-.5976563 3.3691406-1.6416016 5.7070313-5.0703125 6.8583984-2.3452148.7880859-9.4711914 1.0478516-10.5727539.8994141-5.1044922-.6894531-5.7124023-5.1328125-1.6142578-6.4550781 2.5014648-.8076172 4.2890625.6787109 5.9960938.4912109 7.097168-.7792969 1.3330078-11.4121094 7.4458008-12.6669922 1.2246094-.2519531.7163086-2.1201172-.5014648-1.8701172-4.5151367.9267578-4.4790039 5.5390625-4.7905273 9.3066406-.5585938 6.7529297-10.7646484.3466797-12.4082031 6.3056641-3.0131836-.3642578-5.6118164-1.8447266-7.7827148-3.9570313-1.190918-1.2451172-1.8217773-2.7460938-1.8935547-4.5039063-.362793-4.6162109 5.7612305-7.0898438 7.3183594-3.0302734.8388672 2.1875 2.6157227 5.2744141 5.2446289 5.5673828 8.2167969.9169922 9.8173828-6.9482422 10.2045898-13.7363281 2.9643555 1.4130859 6.6333008 2.1601563 10.9897461 2.1601563 5.3447266 0 9.5380859-.9853516 12.6416016-2.9462891.3486328.4521484.6308594 1.0751953.8759766 1.9365234.4355469 1.5302734.7597656 2.8964844 1.6357422 4.2441406.6552734 1.0078125 1.7509766 1.390625 2.8613281 1.5830078.6416016.1132813 1.3339844.0673828 1.9824219.0761719 4.5585935.0585938 1.4033201 4.8291016-.9062503 5.0556641z" fill="#9d0404"/><path d="m21.4780273 34.2792969c3.1787109-.0703125 6.3393555.0097656 9.484375-.5429688 2.4604492-.4316406 1.4375-4.1694336-1.0029297-3.7407227-2.7856445.4892578-5.637207.3476563-8.453125.409668-2.4970703.0551758-2.524414 3.928711-.0283203 3.8740235z" fill="#e43956"/><path d="m16.7016602 35.9931641c-.2402344 0-.4750977-.0898438-.6557617-.2548828-.2211914-.2041016-.3349609-.5-.3085938-.7998047l.9414063-10.5527344c.0322266-.3613281.2631836-.6738281.5991211-.8110352.3359375-.1357422.7202148-.0751953.9951172.1616211 1.1865234 1.0161133 7.7368164 1.5952148 12.0097656 1.6816406.5341797.0112305.9584961.4536133.9482422.9882813-.0112305.5341797-.4760742.9248047-.987793.9482422-1.5473633-.03125-8.3779297-.2338867-11.7602539-1.3969727l-.7060547 7.9116211c2.9624023-.4580078 10.4018555-1.4702148 13.9345703-.6845703.5219727.1162109.8505859.6347656.7348633 1.1572266-.1162109.5224609-.6352539.8447266-1.1557617.734375-4.0048828-.8925781-14.3193359.8847656-14.4228516.9033203-.0551758.0087891-.1103516.0136719-.1660156.0136719z" fill="#9d0404"/><ellipse cx="13.863037" cy="29.343262" fill="#ff506e" rx="7.828369" ry="8.540527"/><ellipse cx="13.624756" cy="29.149414" fill="#810404" rx="3.076904" ry="3.495606"/><ellipse cx="44.081055" cy="15.94043" fill="#3d030c" rx="2.552734" ry="3.075684"/><ellipse cx="25.117432" cy="15.94043" fill="#3d030c" rx="2.552979" ry="3.075684"/><ellipse cx="24.393799" cy="14.613281" fill="#fff" rx=".854248" ry=".867676"/><ellipse cx="43.225586" cy="14.61377" fill="#fff" rx=".854492" ry=".867188"/><path d="m13.8671875 37.5458984s6.8852539-5.6328125 7.1928711-8.1464844c0 .0000001.3764648 8.0673829-7.1928711 8.1464844z" fill="#e43956"/><ellipse cx="41.940918" cy="7.29541" fill="#fff" rx="2.777832" ry="1.904297"/><path d="m37.9824219 34.6826172c-.4335938-1.2480469 4.5205078-1.1279297 8.7626953-4.3134766 4.2412109-3.1835938 3.9072266-5.7368164 5.3818359-5.081543s-.9580078 5.7641602-4.7460938 7.7807617c-3.7294921 1.9882813-9.1523437 2.3281251-9.3984374 1.6142579z" fill="#ff91ab"/><ellipse cx="46.612793" cy="10.350586" fill="#fff" rx="1.031738" ry=".833008"/><path d="m8.1987305 44.9160156c1.9150391-.7050781 3.0410156 5.2724609 5.6308594 5.8291016 2.5898438.5556641 4.6655273.5371094 6.4555664.4833984 1.5585938-.0458984-1.3515625 2.0791016-6.777832.96875s-6.8164063-6.7265625-5.3085938-7.28125z" fill="#ff91ab"/><path d="m29.2421875 49.9384766c-.2421875-4.1962891 1.0361328-6.2919922 2.2587891-5.6572266 1.2226563.6357422.5644531 9.2880859-2.9047852 11.546875-1.3671875.8896484-6.2939453 1.8408203-6.2939453.96875 0-.8730469 7.3071289-.4951172 6.9399414-6.8583984z" fill="#ff91ab"/><path d="m38.7158203 49.5019531c-.0253906 2.9560547.5947266 6.8320313 2.1035156 7.0361328 1.5078125.2041016.5556641-.6699219 0-2.1777344-.5566406-1.5068359-.3183594-7.1416016-1.1113281-7.1416016-.7939453.0000001-.9833984 1.3154298-.9921875 2.2832032z" fill="#ff91ab"/><path d="m46.4482422 47.7080078c1.0322266-.2578125 4.4443359 3.1757813 2.1425781 3.5722656-2.3017578.3955079-3.4130859-3.2539062-2.1425781-3.5722656z" fill="#ff91ab"/><ellipse cx="8.584473" cy="44.730469" fill="#fff" rx="1.302734" ry="1.249024"/><ellipse cx="12.124268" cy="23.932129" fill="#fff" rx="1.328369" ry="1.189941"/><path d="m15.3242188 25.2143555c1.6342773.2514648 2.1801758 1.8618164 2.1445313 3.3447266-.0302734 1.2514648 1.9067383 1.2592773 1.9365234.0141602.0546875-2.2817383-1.0893555-4.8452148-3.5693359-5.2275391-1.2226563-.1875001-1.7436524 1.6791991-.5117188 1.8686523z" fill="#ff91ab"/><path d="m13.8632813 38.8515625c-4.8505859 0-8.796875-4.265625-8.796875-9.5083008 0-5.2421875 3.9462891-9.5073242 8.796875-9.5073242s8.7963867 4.2651367 8.7963867 9.5073242c0 5.2426758-3.9458008 9.5083008-8.7963867 9.5083008zm0-17.0791016c-3.7832031 0-6.8603516 3.3959961-6.8603516 7.5708008 0 4.175293 3.0771484 7.5717773 6.8603516 7.5717773 3.7822266 0 6.8598633-3.3964844 6.8598633-7.5717773-.0000001-4.1748047-3.0776368-7.5708008-6.8598633-7.5708008z" fill="#9d0404"/><ellipse cx="19.11499" cy="55.745117" fill="#fff" rx=".939697" ry=".724609"/><ellipse cx="48.243652" cy="56.30957" fill="#fff" rx=".939941" ry=".72461"/></svg>