<svg width="60" height="369" viewBox="0 0 60 369" fill="none" xmlns="http://www.w3.org/2000/svg">
<path d="M59.8536 184.725C60.0488 184.53 60.0488 184.213 59.8536 184.018L56.6716 180.836C56.4763 180.641 56.1597 180.641 55.9645 180.836C55.7692 181.031 55.7692 181.348 55.9645 181.543L58.7929 184.371L55.9645 187.2C55.7692 187.395 55.7692 187.712 55.9645 187.907C56.1597 188.102 56.4763 188.102 56.6716 187.907L59.8536 184.725ZM0.5 120.891C6.1298 120.891 10.2971 124.693 13.9853 130.651C17.6743 136.611 20.7784 144.552 24.3544 152.585C27.9157 160.585 31.9352 168.648 37.436 174.71C42.9536 180.791 49.973 184.871 59.5 184.871V183.871C50.3085 183.871 43.5438 179.954 38.1766 174.039C32.7927 168.105 28.827 160.173 25.2679 152.178C21.7235 144.216 18.5721 136.162 14.8356 130.125C11.0983 124.087 6.6702 119.891 0.5 119.891V120.891Z" fill="#C1C1C1"/>
<path d="M59.8536 184.194C60.0488 184.389 60.0488 184.705 59.8536 184.901L56.6716 188.083C56.4763 188.278 56.1597 188.278 55.9645 188.083C55.7692 187.887 55.7692 187.571 55.9645 187.376L58.7929 184.547L55.9645 181.719C55.7692 181.523 55.7692 181.207 55.9645 181.012C56.1597 180.816 56.4763 180.816 56.6716 181.012L59.8536 184.194ZM0.5 248.027C6.1298 248.027 10.2971 244.226 13.9853 238.267C17.6743 232.307 20.7784 224.367 24.3544 216.334C27.9157 208.334 31.9352 200.271 37.436 194.208C42.9536 188.127 49.973 184.047 59.5 184.047V185.047C50.3085 185.047 43.5438 188.965 38.1766 194.88C32.7927 200.814 28.827 208.746 25.2679 216.741C21.7235 224.703 18.5721 232.757 14.8356 238.793C11.0983 244.831 6.6702 249.027 0.5 249.027V248.027Z" fill="#C1C1C1"/>
<path d="M59.8536 184.901C60.0488 184.705 60.0488 184.389 59.8536 184.194L56.6716 181.012C56.4763 180.816 56.1597 180.816 55.9645 181.012C55.7692 181.207 55.7692 181.523 55.9645 181.719L58.7929 184.547L55.9645 187.376C55.7692 187.571 55.7692 187.887 55.9645 188.083C56.1597 188.278 56.4763 188.278 56.6716 188.083L59.8536 184.901ZM0.5 64.8209C3.2084 64.8209 5.62658 66.5393 7.86435 69.7715C10.0988 72.9989 12.0836 77.6404 13.9355 83.2627C17.6394 94.5069 20.7588 109.497 24.3246 124.549C27.884 139.574 31.887 154.653 37.356 165.979C42.8103 177.275 49.8264 185.047 59.5 185.047V184.047C50.4551 184.047 43.687 176.791 38.2566 165.544C32.841 154.329 28.8587 139.35 25.2977 124.319C21.7432 109.314 18.607 94.2481 14.8853 82.9498C13.0246 77.3009 11.0041 72.5497 8.68653 69.2023C6.37227 65.8596 3.6916 63.8209 0.5 63.8209V64.8209Z" fill="#C1C1C1"/>
<path d="M59.8536 184.857C60.0488 184.661 60.0488 184.345 59.8536 184.15L56.6716 180.968C56.4763 180.772 56.1597 180.772 55.9645 180.968C55.7692 181.163 55.7692 181.479 55.9645 181.675L58.7929 184.503L55.9645 187.332C55.7692 187.527 55.7692 187.843 55.9645 188.039C56.1597 188.234 56.4763 188.234 56.6716 188.039L59.8536 184.857ZM0.5 1.5C1.79619 1.5 3.04915 2.12554 4.27982 3.40714C5.51472 4.69314 6.69312 6.60693 7.82009 9.09145C10.0731 14.0585 12.0669 21.1834 13.9217 29.7778C17.6303 46.9622 20.7543 69.8737 24.3171 92.8283C27.8767 115.763 31.8741 138.737 37.3296 155.982C40.0565 164.601 43.1589 171.828 46.777 176.908C50.3939 181.987 54.5881 185.003 59.5 185.003V184.003C55.0527 184.003 51.1212 181.285 47.5916 176.328C44.0633 171.374 40.9985 164.264 38.283 155.68C32.8538 138.518 28.866 115.616 25.3052 92.6749C21.7476 69.7537 18.616 46.7894 14.8992 29.5669C13.0412 20.9579 11.0298 13.7467 8.73078 8.67836C7.58175 6.1452 6.34743 4.11654 5.00111 2.71451C3.65056 1.30807 2.15381 0.5 0.5 0.5V1.5Z" fill="#C1C1C1"/>
<path d="M59.8536 184.128C60.0488 184.323 60.0488 184.639 59.8536 184.835L56.6716 188.017C56.4763 188.212 56.1597 188.212 55.9645 188.017C55.7692 187.821 55.7692 187.505 55.9645 187.31L58.7929 184.481L55.9645 181.653C55.7692 181.458 55.7692 181.141 55.9645 180.946C56.1597 180.75 56.4763 180.75 56.6716 180.946L59.8536 184.128ZM0.5 367.484C1.79619 367.484 3.04915 366.859 4.27982 365.577C5.51472 364.291 6.69312 362.377 7.82009 359.893C10.0731 354.926 12.0669 347.801 13.9217 339.207C17.6303 322.022 20.7543 299.111 24.3171 276.156C27.8767 253.222 31.8741 230.248 37.3296 213.003C40.0565 204.383 43.1589 197.157 46.777 192.076C50.3939 186.997 54.5881 183.981 59.5 183.981V184.981C55.0527 184.981 51.1212 187.7 47.5916 192.656C44.0633 197.611 40.9985 204.721 38.283 213.304C32.8538 230.466 28.866 253.368 25.3052 276.309C21.7476 299.231 18.616 322.195 14.8992 339.417C13.0412 348.026 11.0298 355.238 8.73078 360.306C7.58175 362.839 6.34743 364.868 5.00111 366.27C3.65056 367.676 2.15381 368.484 0.5 368.484V367.484Z" fill="#C1C1C1"/>
<path d="M59.8536 184.194C60.0488 184.389 60.0488 184.706 59.8536 184.901L56.6716 188.083C56.4763 188.278 56.1597 188.278 55.9645 188.083C55.7692 187.887 55.7692 187.571 55.9645 187.376L58.7929 184.547L55.9645 181.719C55.7692 181.524 55.7692 181.207 55.9645 181.012C56.1597 180.816 56.4763 180.816 56.6716 181.012L59.8536 184.194ZM0.5 304.273C3.2084 304.273 5.62658 302.555 7.86435 299.323C10.0988 296.095 12.0836 291.454 13.9355 285.832C17.6394 274.588 20.7588 259.597 24.3246 244.545C27.884 229.52 31.887 214.442 37.356 203.115C42.8103 191.819 49.8264 184.047 59.5 184.047V185.047C50.4551 185.047 43.687 192.303 38.2566 203.55C32.841 214.766 28.8587 229.744 25.2977 244.776C21.7432 259.78 18.607 274.846 14.8853 286.145C13.0246 291.793 11.0041 296.545 8.68653 299.892C6.37227 303.235 3.6916 305.273 0.5 305.273V304.273Z" fill="#C1C1C1"/>
<path d="M0.665283 184.723H59.3347" stroke="#C1C1C1"/>
</svg>
