<svg width="21.689" xmlns="http://www.w3.org/2000/svg" height="20.222" fill="none"><g class="h-2/3 w-2/3" style="fill: rgb(0, 0, 0);"><text fill="none" x="-9999" y="-9999" transform="scale(.52899 .49323)" style="fill: rgb(0, 0, 0);">ChatGPT</text><path d="M19.854 8.321a4.607 4.607 0 0 0-.453-4.037 5.215 5.215 0 0 0-2.454-2.065 5.685 5.685 0 0 0-3.288-.32A5.269 5.269 0 0 0 11.863.672 5.59 5.59 0 0 0 9.684.247a5.59 5.59 0 0 0-3.145.948 4.997 4.997 0 0 0-1.941 2.493 5.483 5.483 0 0 0-2.039.837 5.062 5.062 0 0 0-1.486 1.548 4.695 4.695 0 0 0-.691 3.014 4.817 4.817 0 0 0 1.347 2.814 4.607 4.607 0 0 0 .453 4.037 5.215 5.215 0 0 0 2.454 2.065 5.685 5.685 0 0 0 3.288.32c.498.523 1.11.942 1.796 1.227.686.285 1.429.43 2.179.426a5.602 5.602 0 0 0 3.146-.949 5.003 5.003 0 0 0 1.942-2.495 5.483 5.483 0 0 0 2.039-.837 5.07 5.07 0 0 0 1.486-1.547 4.7 4.7 0 0 0 .689-3.014 4.82 4.82 0 0 0-1.347-2.813Zm-7.953 10.365a4.131 4.131 0 0 1-2.538-.856c.032-.016.088-.045.125-.066l4.213-2.269a.65.65 0 0 0 .254-.236.602.602 0 0 0 .092-.323V9.398l1.781.959c.009.004.017.01.023.018.006.008.01.018.012.027v4.587a3.58 3.58 0 0 1-1.162 2.611 4.118 4.118 0 0 1-2.8 1.086Zm-8.52-3.393a3.475 3.475 0 0 1-.473-2.477l.126.069 4.213 2.269a.726.726 0 0 0 .692 0l5.143-2.769v1.917a.058.058 0 0 1-.005.029.06.06 0 0 1-.02.022l-4.259 2.293a4.221 4.221 0 0 1-3.008.368c-1.016-.254-1.882-.873-2.409-1.721ZM2.273 6.717a3.898 3.898 0 0 1 2.064-1.621l-.002.136V9.77a.602.602 0 0 0 .092.323c.06.098.148.179.254.235l5.144 2.769-1.781.959a.062.062 0 0 1-.03.009.061.061 0 0 1-.03-.004l-4.26-2.295c-.909-.491-1.573-1.298-1.845-2.244a3.486 3.486 0 0 1 .394-2.805Zm14.631 3.175L11.76 7.123l1.781-.959a.075.075 0 0 1 .029-.009.065.065 0 0 1 .031.004l4.259 2.293a3.83 3.83 0 0 1 1.533 1.492c.349.623.499 1.326.435 2.026a3.555 3.555 0 0 1-.798 1.927 3.956 3.956 0 0 1-1.782 1.227V10.45a.606.606 0 0 0-.091-.322.668.668 0 0 0-.253-.236Zm1.772-2.487a5.288 5.288 0 0 0-.125-.07l-4.213-2.269a.725.725 0 0 0-.692 0L8.502 7.835V5.918c0-.01.002-.02.006-.029a.06.06 0 0 1 .02-.022l4.259-2.291a4.193 4.193 0 0 1 2.151-.491c.752.03 1.48.259 2.098.661.618.402 1.1.959 1.39 1.607a3.46 3.46 0 0 1 .25 2.052ZM7.534 10.822l-1.781-.958a.075.075 0 0 1-.024-.019.064.064 0 0 1-.011-.027V5.232a3.523 3.523 0 0 1 .62-1.983 3.897 3.897 0 0 1 1.664-1.364 4.232 4.232 0 0 1 2.189-.318c.747.09 1.451.376 2.03.825-.032.017-.088.046-.125.067L7.883 4.728a.662.662 0 0 0-.254.235.602.602 0 0 0-.092.323l-.003 5.536Zm.967-1.944 2.291-1.234 2.291 1.233v2.466l-2.291 1.233-2.291-1.233V8.878Z" style="fill: rgb(0, 0, 0);" class="fills"/></g></svg>